<svg width="234" height="143" fill="none" xmlns="http://www.w3.org/2000/svg"><path d="M159.82 68.024l-.638-.77.638.77zm-26.259-66.06L133.47.97l.091.996zm-23.764 100.407l-.754.656.754-.656zm122.919 30.858a1 1 0 01.199 1.4l-5.403 7.198a1 1 0 11-1.6-1.201l4.803-6.398-6.398-4.802a1 1 0 011.201-1.6l7.198 5.403zM.737 4.746a1 1 0 111.88-.683l-1.88.683zm229.459 130.559a.999.999 0 11-.267-1.982l.267 1.982zm-4.338-1.462a1 1 0 11.238 1.986l-.238-1.986zm-3.867 2.447a.999.999 0 11-.208-1.989l.208 1.989zm-4.301-1.594a1 1 0 01.176 1.993l-.176-1.993zm-3.954 2.323a1 1 0 01-.142-1.995l.142 1.995zm-4.24-1.739a1.001 1.001 0 01.107 1.997l-.107-1.997zm-4.029 2.181a1.001 1.001 0 01-.07-1.999l.07 1.999zm-4.17-1.895a1 1 0 11.031 2l-.031-2zm-4.109 2.022a1 1 0 01.01-2l-.01 2zm-4.087-2.064a1 1 0 01-.053 1.999l.053-1.999zm-4.194 1.843a1 1 0 01.098-1.998l-.098 1.998zm-3.995-2.248a1.001 1.001 0 01-.146 1.995l.146-1.995zm-4.28 1.641a1 1 0 01.196-1.991l-.196 1.991zm-3.876-2.445a.999.999 0 11-.248 1.984l.248-1.984zm-4.359 1.412a1 1 0 11.304-1.977l-.304 1.977zm-3.732-2.657a1 1 0 11-.362 1.967l.362-1.967zm-4.434 1.155a1 1 0 01.421-1.955l-.421 1.955zm-3.562-2.881a1 1 0 11-.484 1.94l.484-1.94zm-4.498.866a1 1 0 11.55-1.923l-.55 1.923zm-3.358-3.116a1 1 0 11-.618 1.902l.618-1.902zm-4.549.545a1 1 0 01.688-1.878l-.688 1.878zm-3.12-3.357a1 1 0 11-.76 1.849l.76-1.849zm-4.579.19a.999.999 0 11.834-1.818l-.834 1.818zm-2.839-3.596a1 1 0 01-.909 1.782l.909-1.782zm-4.578-.19a1 1 0 01.985-1.741l-.985 1.741zm-2.52-3.826a1 1 0 11-1.06 1.696l1.06-1.696zm-4.542-.591a1 1 0 111.135-1.646l-1.135 1.646zm-2.168-4.035a1 1 0 01-1.209 1.593l1.209-1.593zm-4.47-1.002a1 1 0 011.281-1.536l-1.281 1.536zm-1.788-4.218a1 1 0 01-1.35 1.475l1.35-1.475zm-4.359-1.409a1 1 0 011.417-1.412l-1.417 1.412zm-1.393-4.364a.998.998 0 11-1.479 1.345l1.479-1.345zm-4.185-1.762a1 1 0 011.535-1.283l-1.535 1.283zm-.905-4.322a1 1 0 11-1.584 1.221l1.584-1.22zm-3.978-2.024a1 1 0 011.635-1.152l-1.635 1.152zm-.555-4.41A1 1 0 11100.6 91.8l1.685-1.077zm-3.76-2.344a1 1 0 111.734-.997l-1.735.996zm-.124-4.427a1 1 0 11-1.782.907l1.782-.907zm-3.515-2.736a1 1 0 111.828-.81l-1.828.81zm.344-4.431a1 1 0 01-1.871.705l1.871-.705zm-3.18-3.1a1 1 0 011.91-.594l-1.91.593zm.869-4.353a1 1 0 01-1.943.474l1.943-.474zm-2.772-3.466a1 1 0 011.969-.348l-1.97.348zm1.417-4.205a1 1 0 11-1.988.217l1.988-.217zm-2.291-3.803a1 1 0 111.998-.082l-1.998.082zm1.972-3.977a1 1 0 11-1.999-.056l2 .056zM89.5 49.797a1 1 0 111.99.196l-1.99-.196zm2.508-3.665a1 1 0 11-1.971-.335l1.971.335zm-1.154-4.289a1 1 0 111.943.474l-1.943-.474zm2.999-3.276a1 1 0 01-1.905-.61l1.905.61zm-.54-4.41a1 1 0 011.857.743l-1.857-.742zm3.428-2.823a1 1 0 01-1.8-.87l1.8.87zm.08-4.442a1 1 0 111.736.994l-1.736-.994zm3.788-2.32a1 1 0 11-1.662-1.111l1.662 1.112zm.697-4.386a1 1 0 011.581 1.225l-1.581-1.225zm4.074-1.767a1 1 0 11-1.49-1.334l1.49 1.334zm1.309-4.243a1 1 0 111.39 1.438l-1.39-1.438zm4.284-1.161a1 1 0 11-1.28-1.537l1.28 1.537zm1.924-4.004a1 1 0 111.158 1.63l-1.158-1.63zm4.416-.492A1 1 0 01116.29 6.8l1.023 1.72zm2.545-3.64a1 1 0 01.872 1.8l-.872-1.8zm4.429.273a1 1 0 11-.701-1.873l.701 1.873zm3.167-3.109a1 1 0 01.512 1.934l-.512-1.934zm4.291 1.148a1 1 0 11-.297-1.977l.297 1.977zm3.847-2.378a1 1 0 01.11 1.997l-.11-1.997zm4.17 1.929a1 1 0 11.044-2l-.044 2zm4.255-1.73a1 1 0 11-.214 1.989l.214-1.989zm3.777 2.6a1 1 0 01.395-1.96l-.395 1.96zm4.515-.916a1 1 0 01-.589 1.911l.589-1.911zm3.198 3.3a1 1 0 01.79-1.837l-.79 1.837zm4.59.054a1 1 0 01-.992 1.737l.992-1.737zm2.378 3.937a1 1 0 111.191-1.606l-1.191 1.606zm4.45 1.137a1 1 0 11-1.38 1.448l1.38-1.448zm1.344 4.394a1 1 0 011.552-1.262l-1.552 1.262zm4.028 2.21a1 1 0 01-1.699 1.056l1.699-1.055zm.196 4.591a1 1 0 111.819-.83l-1.819.83zm3.342 3.153a1 1 0 11-1.909.595l1.909-.595zm-.955 4.494a1 1 0 111.968-.354l-1.968.355zm2.465 3.878a1 1 0 01-1.997.112l1.997-.112zm-2.011 4.133a1 1 0 111.996.125l-1.996-.125zm1.486 4.346a1 1 0 11-1.968-.353l1.968.353zm-2.901 3.573a1 1 0 011.918.569l-1.918-.569zm.499 4.562a1 1 0 11-1.847-.768l1.847.768zm-3.585 2.877a1 1 0 111.76.95l-1.76-.95zm-.432 4.582a1 1 0 01-1.662-1.113l1.662 1.113zm-4.064 2.143a1 1 0 111.555 1.257l-1.555-1.257zm-1.234 4.422a1 1 0 11-1.444-1.384l1.444 1.384zm-4.366 1.435a1 1 0 111.332 1.492l-1.332-1.492zm-1.845 4.141a1 1 0 01-1.237-1.571l1.237 1.572zm-4.336.745a1 1 0 111.157 1.632l-1.157-1.632zm-2.162 3.859a1 1 0 01-1.071-1.69l1.071 1.69zm-4.392.297a.999.999 0 11.98 1.743l-.98-1.743zm-2.544 3.604a1 1 0 01-.886-1.793l.886 1.793zm-4.411-.167a1 1 0 11.788 1.838l-.788-1.838zm-2.91 3.307a1 1 0 01-.688-1.878l.688 1.878zm-4.366-.643a1 1 0 11.586 1.913l-.586-1.913zm-3.255 2.977a1 1 0 11-.482-1.94l.482 1.94zm-4.268-1.104a1 1 0 01.38 1.963l-.38-1.963zm-3.55 2.619a1 1 0 11-.278-1.98l.278 1.98zm-4.133-1.538a1 1 0 11.178 1.992l-.178-1.992zm-3.795 2.25a1 1 0 01-.081-2l.081 2zm-3.964-1.935a1 1 0 11-.015 2l.015-2zm-3.989 1.88a1 1 0 01.106-1.997l-.106 1.997zm-3.773-2.29a1 1 0 11-.195 1.99l.195-1.99zm-4.14 1.52a1 1 0 11.279-1.981l-.28 1.98zm-3.56-2.604a1 1 0 11-.36 1.968l.36-1.968zm-4.256 1.173a1 1 0 01.438-1.951l-.438 1.95zm-3.342-2.877a1 1 0 01-.513 1.933l.513-1.933zm-4.328.844A1 1 0 1184 80.063l-.584 1.912zm-3.128-3.118a1 1 0 01-.651 1.89l.651-1.89zm-4.375.534a1 1 0 11.717-1.867l-.717 1.867zm-2.9-3.325a1 1 0 11-.778 1.842l.779-1.842zm-4.408.236a1 1 0 11.839-1.816l-.839 1.816zm-2.672-3.506a1 1 0 11-.896 1.789l.895-1.788zm-4.414-.042a1 1 0 01.951-1.76l-.95 1.76zm-2.454-3.667a1 1 0 11-1.004 1.73l1.004-1.73zm-4.4-.308a1 1 0 111.055-1.7l-1.055 1.7zm-2.233-3.807a1 1 0 01-1.104 1.668l1.104-1.668zm-4.375-.566a1 1 0 111.152-1.635l-1.152 1.635zm-2.008-3.928a1 1 0 01-1.198 1.602l1.198-1.602zm-4.337-.815a1 1 0 111.243-1.568l-1.243 1.568zm-1.782-4.036a1 1 0 01-1.286 1.531l1.286-1.531zm-4.284-1.058a1 1 0 011.33-1.495l-1.33 1.495zm-1.552-4.13a1 1 0 11-1.37 1.457l1.37-1.457zm-4.218-1.298a1 1 0 011.411-1.418l-1.41 1.418zm-1.315-4.21a1 1 0 11-1.45 1.377l1.45-1.377zm-4.138-1.537a1 1 0 011.49-1.334l-1.49 1.334zm-1.072-4.28a1 1 0 11-1.528 1.291l1.528-1.29zm-4.038-1.771a1 1 0 011.565-1.245l-1.565 1.245zm-.82-4.339a1 1 0 01-1.602 1.197l1.602-1.197zm-3.924-2.012a1 1 0 111.639-1.147l-1.639 1.147zm-.549-4.378a1 1 0 01-1.673 1.095l1.673-1.095zm-3.792-2.26a1 1 0 011.709-1.04l-1.709 1.04zm-.26-4.4a1 1 0 01-1.743.983l1.742-.982zm-3.634-2.508a1 1 0 011.775-.922l-1.775.922zm.04-4.413a1 1 0 11-1.807.859l1.807-.859zm-3.441-2.752a1 1 0 111.836-.79l-1.836.79zm.362-4.402a1 1 0 01-1.866.72l1.866-.72zm228.959 129.14c-.688.098-1.375.193-2.06.286l-.267-1.982c.679-.092 1.361-.187 2.045-.284l.282 1.98zm-6.16.81c-1.377.165-2.745.319-4.105.461l-.208-1.989c1.349-.141 2.708-.294 4.075-.458l.238 1.986zm-8.23.86c-1.386.122-2.763.232-4.13.33l-.142-1.995c1.356-.097 2.721-.206 4.096-.328l.176 1.993zm-8.263.588c-1.389.075-2.768.136-4.136.184l-.07-1.999c1.356-.047 2.722-.108 4.099-.182l.107 1.997zm-8.275.289c-1.391.021-2.771.029-4.14.022l.01-2a200.88 200.88 0 004.099-.022l.031 2zm-8.28-.043a185.354 185.354 0 01-4.141-.156l.098-1.998c1.353.067 2.719.118 4.096.155l-.053 1.999zm-8.282-.409c-1.391-.102-2.769-.22-4.134-.354l.196-1.991c1.348.133 2.71.25 4.084.35l-.146 1.995zm-8.258-.815a149.6 149.6 0 01-4.111-.572l.304-1.977c1.338.205 2.69.394 4.055.565l-.248 1.984zm-8.205-1.262a136.976 136.976 0 01-4.072-.812l.421-1.955c1.323.285 2.66.552 4.013.8l-.362 1.967zm-8.118-1.753a122.689 122.689 0 01-4.014-1.074l.55-1.923c1.3.372 2.616.724 3.948 1.057l-.484 1.94zm-7.99-2.288a112.131 112.131 0 01-3.931-1.357l.688-1.878c1.27.465 2.557.91 3.861 1.333l-.618 1.902zm-7.811-2.865a102.23 102.23 0 01-3.819-1.659l.834-1.818c1.231.565 2.479 1.107 3.745 1.628l-.76 1.849zm-7.567-3.473a97.393 97.393 0 01-3.669-1.972l.985-1.741a95.576 95.576 0 003.593 1.931l-.909 1.782zm-7.249-4.102a92.769 92.769 0 01-3.482-2.287l1.135-1.646a91.245 91.245 0 003.407 2.237l-1.06 1.696zm-6.859-4.729a92.692 92.692 0 01-3.261-2.595l1.281-1.536a88.653 88.653 0 003.189 2.538l-1.209 1.593zm-6.399-5.338a90.85 90.85 0 01-3.009-2.884l1.417-1.412a88.815 88.815 0 002.942 2.821l-1.35 1.475zm-5.881-5.903a89.573 89.573 0 01-1.386-1.559l1.509-1.312c.447.515.899 1.023 1.356 1.526l-1.479 1.345zm-1.386-1.559a106.65 106.65 0 01-1.32-1.548l1.535-1.283a97.67 97.67 0 001.294 1.519l-1.509 1.312zm-3.809-4.649a94.046 94.046 0 01-2.394-3.245l1.635-1.152a91.413 91.413 0 002.343 3.176l-1.584 1.221zM100.6 91.8a84.305 84.305 0 01-2.076-3.421l1.735-.997a82.268 82.268 0 002.026 3.34L100.6 91.8zm-3.981-6.941a74.95 74.95 0 01-1.733-3.643l1.828-.81a73.118 73.118 0 001.687 3.546l-1.782.907zm-3.26-7.37a67.864 67.864 0 01-1.308-3.805l1.91-.593c.38 1.225.803 2.457 1.27 3.694l-1.872.705zm-2.383-7.683a62.796 62.796 0 01-.83-3.94l1.97-.348c.224 1.262.49 2.534.803 3.814l-1.943.474zm-1.4-7.928a59.36 59.36 0 01-.303-4.02l1.998-.082a57.55 57.55 0 00.293 3.885l-1.988.217zm-.33-8.053c.038-1.358.124-2.701.254-4.028l1.99.196a55.695 55.695 0 00-.245 3.888l-1.999-.056zm.79-8.028c.228-1.338.501-2.656.818-3.954l1.943.474a55.189 55.189 0 00-.789 3.815l-1.971-.335zm1.912-7.84c.413-1.29.869-2.557 1.365-3.8l1.857.743a55.464 55.464 0 00-1.317 3.667l-1.905-.61zm2.992-7.493a57.861 57.861 0 011.881-3.572l1.736.994a55.914 55.914 0 00-1.816 3.448l-1.8-.87zm4.007-7.003a57.7 57.7 0 012.359-3.275l1.581 1.225a55.537 55.537 0 00-2.278 3.162l-1.662-1.112zm4.943-6.376a56.565 56.565 0 012.799-2.91l1.39 1.439a54.654 54.654 0 00-2.699 2.805l-1.49-1.334zm5.803-5.607a52.591 52.591 0 013.204-2.467l1.158 1.63a50.793 50.793 0 00-3.082 2.374l-1.28-1.537zM116.29 6.8a47.422 47.422 0 013.568-1.922l.872 1.8a45.114 45.114 0 00-3.417 1.841L116.29 6.8zm7.296-3.52c1.28-.48 2.572-.894 3.868-1.237l.512 1.934a38.72 38.72 0 00-3.679 1.175l-.701-1.873zm7.862-2.066a35 35 0 012.022-.245l.182 1.991c-.635.059-1.27.136-1.907.231l-.297-1.977zm2.022-.245a58.32 58.32 0 012.122-.156l.11 1.997c-.676.037-1.359.087-2.05.15L133.47.97zm6.336-.227c1.439.033 2.843.124 4.211.27l-.214 1.989a47.966 47.966 0 00-4.041-.26l.044-1.999zm8.383.91c1.418.286 2.792.635 4.12 1.044l-.589 1.911a40.556 40.556 0 00-3.926-.994l.395-1.96zm8.108 2.507a37.44 37.44 0 013.8 1.891l-.992 1.737a35.511 35.511 0 00-3.598-1.79l.79-1.838zm7.369 4.222a34.352 34.352 0 013.259 2.743l-1.38 1.448a32.572 32.572 0 00-3.07-2.585l1.191-1.606zm6.155 5.875a33.527 33.527 0 012.476 3.473l-1.699 1.055a31.525 31.525 0 00-2.329-3.266l1.552-1.262zm4.491 7.232a33.714 33.714 0 011.523 3.984l-1.909.595a31.863 31.863 0 00-1.433-3.748l1.819-.83zm2.536 8.125c.25 1.39.416 2.803.497 4.231l-1.997.112a33.175 33.175 0 00-.468-3.99l1.968-.354zm.482 8.489a37.1 37.1 0 01-.51 4.221l-1.968-.353a35.17 35.17 0 00.482-3.993l1.996.125zm-1.493 8.363a40.189 40.189 0 01-1.419 3.992l-1.847-.767c.524-1.26.973-2.526 1.348-3.794l1.918.569zm-3.244 7.82a44.43 44.43 0 01-2.192 3.632l-1.662-1.113a42.314 42.314 0 002.094-3.469l1.76.95zm-4.701 7.032a50.382 50.382 0 01-2.789 3.165l-1.444-1.384a48.554 48.554 0 002.678-3.038l1.555 1.257zm-5.823 6.092c-.523.467-1.06.929-1.611 1.385l-1.276-1.54a54.26 54.26 0 001.555-1.337l1.332 1.492zm-1.611 1.385c-.52.43-1.042.852-1.566 1.264l-1.237-1.571c.511-.403 1.02-.814 1.527-1.233l1.276 1.54zm-4.745 3.64a77.445 77.445 0 01-3.319 2.228l-1.071-1.69a75.277 75.277 0 003.233-2.169l1.157 1.632zm-6.731 4.268a74.264 74.264 0 01-3.524 1.861l-.886-1.793a73.336 73.336 0 003.43-1.811l.98 1.743zm-7.147 3.532a73.143 73.143 0 01-3.698 1.469l-.688-1.878a71.443 71.443 0 003.598-1.43l.788 1.839zm-7.478 2.739c-1.274.39-2.554.744-3.841 1.064l-.482-1.94a72.56 72.56 0 003.737-1.037l.586 1.913zm-7.729 1.923a77.02 77.02 0 01-3.93.656l-.278-1.98a75.23 75.23 0 003.828-.64l.38 1.964zm-7.885 1.11a81.359 81.359 0 01-3.973.257l-.081-1.998a79.51 79.51 0 003.876-.251l.178 1.992zm-7.952.323a86.699 86.699 0 01-3.974-.12l.106-1.997c1.296.068 2.59.108 3.883.117l-.015 2zm-7.942-.42a92.926 92.926 0 01-3.946-.47l.28-1.981a90.64 90.64 0 003.861.46l-.195 1.991zm-7.866-1.106c-1.3-.239-2.599-.504-3.895-.795l.438-1.951c1.271.285 2.544.545 3.818.778l-.36 1.968zm-7.75-1.74a107.357 107.357 0 01-3.816-1.088l.584-1.912c1.245.38 2.494.736 3.745 1.068l-.513 1.933zm-7.594-2.316a113.082 113.082 0 01-3.724-1.356l.717-1.867c1.215.466 2.435.91 3.658 1.333l-.651 1.89zm-7.402-2.84a121.662 121.662 0 01-3.63-1.605l.839-1.816c1.184.547 2.374 1.074 3.57 1.58l-.779 1.842zm-7.198-3.322a130.523 130.523 0 01-3.518-1.831l.951-1.76c1.147.62 2.301 1.221 3.462 1.802l-.895 1.789zm-6.976-3.768a133.178 133.178 0 01-3.396-2.038l1.055-1.7c1.106.687 2.222 1.357 3.345 2.008l-1.004 1.73zM51.33 66.64a135.69 135.69 0 01-3.27-2.234l1.15-1.635c1.066.75 2.14 1.483 3.224 2.2L51.33 66.64zm-6.477-4.56a140 140 0 01-3.139-2.417l1.243-1.568c1.02.81 2.052 1.604 3.094 2.383l-1.198 1.602zm-6.207-4.922a140.87 140.87 0 01-2.998-2.59l1.33-1.494c.972.865 1.957 1.716 2.954 2.553l-1.286 1.531zm-5.92-5.262a140.228 140.228 0 01-2.848-2.755l1.411-1.418a135.76 135.76 0 002.807 2.716l-1.37 1.457zm-5.614-5.588c-.91-.96-1.806-1.93-2.687-2.914l1.49-1.334c.868.968 1.75 1.926 2.648 2.871l-1.45 1.377zm-5.287-5.903a132.45 132.45 0 01-2.51-3.063l1.565-1.244a132.11 132.11 0 002.473 3.017l-1.528 1.29zm-4.932-6.204c-.792-1.06-1.566-2.13-2.322-3.209l1.639-1.147a126.52 126.52 0 002.285 3.16L16.893 34.2zM12.35 27.71a122.498 122.498 0 01-2.119-3.355l1.709-1.04c.675 1.108 1.37 2.208 2.083 3.3L12.35 27.71zm-4.122-6.772a115.303 115.303 0 01-1.891-3.491l1.775-.922a111.84 111.84 0 001.858 3.43l-1.742.983zM4.57 13.891c-.569-1.196-1.114-2.4-1.634-3.61l1.836-.79a105.512 105.512 0 001.605 3.542l-1.807.859zM1.431 6.6a100.76 100.76 0 01-.694-1.853l1.88-.683a98.7 98.7 0 00.68 1.816l-1.866.72z" fill="#fff"/></svg>