<svg width="265" height="135" fill="none" xmlns="http://www.w3.org/2000/svg"><path d="M262.133 1.007a1 1 0 10-1.96.396l1.96-.396zM248.382 74.1l-.784-.62.784.62zm-125.135-5.048l-.903.43.903-.43zm53.587-50.677l.502-.864-.502.864zm-21.536 104.863l.408.912-.408-.912zm-153.93-17.55a1 1 0 00-.77 1.185l1.867 8.804a1 1 0 101.956-.414l-1.66-7.826 7.827-1.66a1 1 0 00-.415-1.957l-8.805 1.868zm1.36 2.902a.999.999 0 101.066-1.692l-1.066 1.692zm4.458.379a1 1 0 00-1.018 1.721l1.018-1.721zm2.478 3.725a1 1 0 00.97-1.748l-.97 1.748zm4.472.135a1 1 0 00-.924 1.774l.924-1.774zm2.672 3.588a1 1 0 10.878-1.797l-.878 1.797zm4.473-.097a1 1 0 10-.832 1.819l.832-1.819zm2.85 3.448a1 1 0 10.787-1.838l-.786 1.838zm4.463-.318a1 1 0 00-.742 1.857l.742-1.857zm3.014 3.307a1 1 0 10.698-1.874l-.698 1.874zm4.442-.528a1 1 0 00-.655 1.89l.655-1.89zm3.163 3.165a1 1 0 10.612-1.904l-.612 1.904zm4.415-.728a1 1 0 00-.57 1.917l.57-1.917zm3.3 3.022a1 1 0 00.528-1.929l-.528 1.929zm4.378-.92a1 1 0 00-.487 1.94l.486-1.94zm3.427 2.878a1 1 0 00.446-1.95l-.446 1.95zm4.337-1.103a1 1 0 10-.405 1.959l.404-1.959zm3.541 2.732a1 1 0 10.365-1.966l-.364 1.966zm4.286-1.281a1 1 0 00-.324 1.974l.324-1.974zm3.654 2.586a1 1 0 10.284-1.979l-.284 1.979zm4.232-1.453a1 1 0 00-.244 1.985l.244-1.985zm3.751 2.436a1 1 0 10.205-1.989l-.205 1.989zm4.167-1.622a1 1 0 10-.164 1.993l.164-1.993zm3.852 2.283a1 1 0 10.124-1.996l-.124 1.996zm4.102-1.789a1 1 0 10-.083 1.998l.083-1.998zm3.937 2.125a1 1 0 00.042-2l-.042 2zm4.02-1.957a1 1 0 00-.001 2v-2zm4.023 1.959a1 1 0 10-.042-1.999l.042 1.999zm3.941-2.125a1.001 1.001 0 00.085 1.998l-.085-1.998zm4.105 1.784a1 1 0 10-.129-1.996l.129 1.996zm3.838-2.298a1.001 1.001 0 00.175 1.993l-.175-1.993zm4.177 1.595a1 1 0 10-.221-1.987l.221 1.987zm3.721-2.475a1.001 1.001 0 00.27 1.982l-.27-1.982zm4.259 1.387a1 1 0 00-.321-1.974l.321 1.974zm3.598-2.665a1 1 0 10.374 1.965l-.374-1.965zm4.325 1.155a1 1 0 00-.43-1.953l.43 1.953zm3.437-2.865a1 1 0 10.489 1.939l-.489-1.939zm4.386.888a1 1 0 10-.553-1.922l.553 1.922zm3.24-3.084a1 1 0 00.62 1.901l-.62-1.901zm4.438.574a1 1 0 00-.695-1.876l.695 1.876zm2.989-3.328a1 1 0 00.774 1.844l-.774-1.844zm4.534.166a1 1 0 10-.851-1.81l.851 1.81zm2.775-3.603a.999.999 0 10.922 1.775l-.922-1.775zm4.592-.232a.998.998 0 10-.997-1.733l.997 1.733zm2.489-3.842a1 1 0 101.074 1.687l-1.074-1.687zm4.522-.624a1.001 1.001 0 00-1.154-1.634l1.154 1.634zm2.095-4.051a1 1 0 001.235 1.573l-1.235-1.573zm4.456-1.095a1 1 0 10-1.317-1.505l1.317 1.505zm1.664-4.266c-.394.387-.4 1.02-.014 1.415.387.394 1.02.4 1.415.014l-1.401-1.429zm4.293-1.579a1 1 0 10-1.482-1.343l1.482 1.343zm1.143-4.426a1.001 1.001 0 001.563 1.249l-1.563-1.249zm4.064-2.094a1 1 0 00-1.639-1.146l1.639 1.146zm.568-4.535a1 1 0 101.711 1.035l-1.711-1.035zm3.752-2.613a1 1 0 10-1.777-.917l1.777.917zm-.049-4.573a1 1 0 101.837.791l-1.837-.791zm3.357-3.107a1 1 0 10-1.887-.66l1.887.66zm-.686-4.522a1 1 0 001.93.526l-1.93-.526zm2.889-3.548a1 1 0 00-1.962-.39l1.962.39zm-1.316-4.383a1 1 0 001.985.25l-1.985-.25zm2.361-3.918a1 1 0 10-1.997-.11l1.997.11zm-1.916-4.155a1 1 0 002-.03l-2 .03zm1.791-4.21a1 1 0 10-1.993.169l1.993-.17zm-2.475-3.848a1 1 0 101.976-.307l-1.976.307zm1.188-4.418a1 1 0 10-1.95.446l1.95-.446zm-2.989-3.463a1 1 0 001.914-.582l-1.914.582zm.553-4.54a1 1 0 10-1.867.718l1.867-.718zm-3.454-2.995a1 1 0 101.808-.854l-1.808.854zm-.126-4.573a1 1 0 00-1.738.99l1.738-.99zm-3.877-2.433a1 1 0 001.652-1.128l-1.652 1.128zm-.863-4.494a1 1 0 00-1.549 1.265l1.549-1.265zm-4.232-1.729A1.001 1.001 0 00185.618 24l-1.426 1.403zm-1.671-4.255a1 1 0 10-1.278 1.538l1.278-1.537zm-4.495-.855a1 1 0 001.104-1.668l-1.104 1.668zm-2.47-3.776a1 1 0 00-.946 1.762l.946-1.762zm-4.438.042a1 1 0 00.819-1.825l-.819 1.825zm-2.928-3.338a1 1 0 00-.676 1.882l.676-1.882zm-4.377.722a1 1 0 10.517-1.932l-.517 1.932zm-3.438-2.804a1 1 0 00-.341 1.97l.341-1.97zm-4.173 1.492a1 1 0 10.151-1.994l-.151 1.994zm-3.922-2.096a1 1 0 00.053 2l-.053-2zm-3.793 2.308a1 1 0 10-.267-1.982l.267 1.982zm-4.266-1.215a1 1 0 00.486 1.94l-.486-1.94zm-3.188 3.088a1 1 0 10-.705-1.871l.705 1.871zm-4.434-.211a1 1 0 10.918 1.776l-.918-1.776zm-2.387 3.74a1 1 0 00-1.121-1.657l1.121 1.657zm-4.362.825a1 1 0 001.307 1.514l-1.307-1.514zm-1.453 4.194a1 1 0 00-1.474-1.351l1.474 1.351zm-4.053 1.81a1 1 0 101.619 1.173l-1.619-1.173zm-.46 4.413a1 1 0 10-1.741-.984l1.741.984zm-3.547 2.67a1 1 0 001.839.787l-1.839-.787zm.515 4.41a1 1 0 10-1.912-.584l1.912.585zm-2.897 3.359a1 1 0 101.963.384l-1.963-.384zm1.412 4.21a1 1 0 10-1.991-.187l1.991.187zm-2.174 3.875a1 1 0 102-.005l-2 .005zm2.187 3.863a1 1 0 10-1.991.187l1.991-.187zm-1.437 4.195a1 1 0 101.967-.358l-1.967.358zm2.819 3.428a1 1 0 00-1.932.517l1.932-.517zm-.737 4.376a1 1 0 101.886-.663l-1.886.663zm3.31 2.96a1 1 0 00-1.835.797l1.835-.797zm-.066 4.495a1 1 0 101.769-.932l-1.769.932zm3.745 2.476a1 1 0 00-1.688 1.072l1.688-1.072zm.652 4.442a1 1 0 101.595-1.207l-1.595 1.207zm4.097 1.838a1 1 0 00-1.493 1.331l1.493-1.33zm1.355 4.282a1 1 0 001.384-1.443l-1.384 1.444zm4.336 1.178a1 1 0 00-1.271 1.544l1.271-1.544zm1.985 4.03a1 1 0 001.156-1.632l-1.156 1.633zm4.461.54a1 1 0 00-1.041 1.708l1.041-1.708zm2.518 3.72a1 1 0 10.927-1.773l-.927 1.772zm4.492-.046a1 1 0 10-.817 1.826l.817-1.826zm2.956 3.382a1 1 0 00.709-1.87l-.709 1.87zm4.458-.566a1 1 0 10-.605 1.906l.605-1.906zm3.311 3.037a1 1 0 10.505-1.936l-.505 1.936zm4.376-1.03a1 1 0 10-.408 1.959l.408-1.958zm3.599 2.693a1 1 0 00.314-1.975l-.314 1.975zm4.258-1.44a1 1 0 00-.223 1.987l.223-1.987zm3.828 2.351a1 1 0 10.135-1.995l-.135 1.995zm4.111-1.812a1 1 0 10-.049 1.999l.049-1.999zm4.017 2.013a1 1 0 10-.035-2l.035 2zm3.946-2.152a.999.999 0 10.118 1.996l-.118-1.996zm4.171 1.673a1 1 0 00-.2-1.99l.2 1.99zm3.755-2.47a1.001 1.001 0 00.281 1.98l-.281-1.98zm4.293 1.326a1.001 1.001 0 00-.363-1.967l.363 1.967zm3.539-2.77a1 1 0 10.444 1.95l-.444-1.95zm4.39.963a1 1 0 00-.526-1.93l.526 1.93zm3.292-3.06a.999.999 0 10.61 1.905l-.61-1.905zm4.457.58a1 1 0 00-.693-1.876l.693 1.876zm3.005-3.34a1 1 0 00.78 1.842l-.78-1.842zm4.49.167a1 1 0 10-.867-1.803l.867 1.803zm2.669-3.613a1 1 0 00.956 1.757l-.956-1.757zm4.484-.286a1 1 0 10-1.048-1.703l1.048 1.703zm2.275-3.876a1 1 0 001.142 1.642l-1.142-1.642zm4.426-.786a1 1 0 00-1.236-1.572l1.236 1.572zm1.8-4.116a1 1 0 001.333 1.491l-1.333-1.491zm4.292-1.332a1.001 1.001 0 00-1.428-1.4l1.428 1.4zm1.239-4.318a1 1 0 101.523 1.297l-1.523-1.297zm3.998-1.828a1 1 0 00-1.61-1.187l1.61 1.187zm.511-4.27a1 1 0 001.684 1.08l-1.684-1.08zm3.672-2.243a1 1 0 00-1.748-.973l1.748.973zm-.023-4.302a1.001 1.001 0 001.802.868l-1.802-.868zm3.38-2.661a1 1 0 00-1.848-.766l1.848.766zm-.504-4.273a1 1 0 101.886.666l-1.886-.666zm3.079-3.003a1 1 0 10-1.916-.572l1.916.572zm-.925-4.203a1 1 0 101.941.482l-1.941-.482zm2.786-3.276a1 1 0 10-1.96-.396l1.96.396zm-1.289-4.107a1 1 0 001.975.316l-1.975-.316zm2.508-3.493a.999.999 0 10-1.985-.24l1.985.24zm-1.602-3.996a1 1 0 001.993.166l-1.993-.166zm2.246-3.666a1 1 0 10-1.997-.097l1.997.097zm-1.876-3.877a1 1 0 102 .032l-2-.032zM264.306 22a1 1 0 00-1.999.033l1.999-.033zm-2.12-3.744a1 1 0 001.998-.095l-1.998.095zm1.757-3.932a1 1 0 10-1.994.156l1.994-.156zm-2.347-3.607a1 1 0 101.988-.218l-1.988.218zm1.507-4.031a1 1 0 00-1.98.282l1.98-.282zm-2.579-3.441a1 1 0 001.968-.355l-1.968.355zM1.031 107.504c.563.366 1.129.728 1.697 1.086l1.066-1.692c-.56-.353-1.118-.71-1.673-1.071l-1.09 1.677zm5.137 3.186c1.156.684 2.321 1.352 3.496 2.004l.97-1.748a149.012 149.012 0 01-3.448-1.977l-1.018 1.721zm7.044 3.913c1.19.62 2.39 1.225 3.596 1.814l.878-1.797a154.638 154.638 0 01-3.55-1.791l-.924 1.774zm7.237 3.536c1.22.558 2.448 1.101 3.683 1.629l.786-1.838a164.478 164.478 0 01-3.637-1.61l-.832 1.819zm7.403 3.168a164.5 164.5 0 003.756 1.45l.698-1.874c-1.242-.463-2.48-.94-3.711-1.433l-.743 1.857zm7.543 2.812c1.269.44 2.542.865 3.818 1.275l.612-1.904a174.496 174.496 0 01-3.775-1.261l-.655 1.89zm7.663 2.464c1.287.383 2.577.751 3.87 1.105l.528-1.929c-1.279-.35-2.555-.714-3.828-1.093l-.57 1.917zm7.76 2.125c1.304.327 2.609.639 3.915.938l.446-1.95a188.372 188.372 0 01-3.873-.928l-.487 1.94zm7.847 1.794c1.315.271 2.63.529 3.947.773l.364-1.966a197.941 197.941 0 01-3.907-.766l-.404 1.959zm7.908 1.466c1.326.218 2.653.422 3.978.612l.284-1.979a200.161 200.161 0 01-3.938-.607l-.324 1.974zm7.966 1.144c1.334.164 2.666.315 3.995.451l.205-1.989a193.218 193.218 0 01-3.956-.447l-.244 1.985zm7.998.822c1.342.111 2.68.207 4.016.29l.124-1.996a200.63 200.63 0 01-3.976-.287l-.164 1.993zm8.035.499a202.3 202.3 0 004.02.127l.042-2c-1.32-.028-2.647-.07-3.979-.125l-.083 1.998zm8.039.17c1.348.001 2.69-.013 4.024-.041l-.042-1.999c-1.32.027-2.647.041-3.982.04v2zm8.05-.168a180.58 180.58 0 004.02-.214l-.129-1.996c-1.316.085-2.642.156-3.976.212l.085 1.998zm8.033-.519c1.345-.118 2.68-.251 4.002-.398l-.221-1.987c-1.307.145-2.626.276-3.956.392l.175 1.993zm7.993-.891c1.343-.183 2.673-.381 3.989-.595l-.321-1.974c-1.298.211-2.611.407-3.938.587l.27 1.982zm7.961-1.295c1.334-.254 2.651-.524 3.951-.81l-.43-1.953c-1.281.282-2.579.548-3.895.798l.374 1.965zm7.877-1.736a121.41 121.41 0 003.897-1.051l-.553-1.922a122.01 122.01 0 01-3.833 1.034l.489 1.939zm7.757-2.234c1.299-.424 2.572-.866 3.818-1.327l-.695-1.876c-1.22.452-2.468.886-3.743 1.302l.62 1.901zm7.581-2.811a81.733 81.733 0 001.843-.799l-.816-1.825c-.592.264-1.192.525-1.801.78l.774 1.844zm1.843-.799c.647-.289 1.286-.582 1.917-.879l-.851-1.81c-.619.292-1.247.58-1.882.864l.816 1.825zm5.614-2.707a99.756 99.756 0 003.67-2.007l-.997-1.733a96.37 96.37 0 01-3.595 1.965l.922 1.775zm7.233-4.162a87.603 87.603 0 003.448-2.311l-1.154-1.634a85.765 85.765 0 01-3.368 2.258l1.074 1.687zm6.778-4.789a77.992 77.992 0 003.221-2.668l-1.317-1.505a76.431 76.431 0 01-3.139 2.6l1.235 1.573zm6.286-5.505a71.287 71.287 0 002.892-3.008l-1.482-1.343a67.319 67.319 0 01-2.811 2.922l1.401 1.429zm5.598-6.185a65.228 65.228 0 002.501-3.343l-1.639-1.146a63.202 63.202 0 01-2.425 3.24l1.563 1.249zm4.78-6.843a60.924 60.924 0 002.041-3.648l-1.777-.917a59.67 59.67 0 01-1.975 3.53l1.711 1.035zm3.829-7.43a60.05 60.05 0 001.52-3.898l-1.887-.66a57.95 57.95 0 01-1.47 3.767l1.837.791zm2.764-7.894a59.75 59.75 0 00.959-4.075l-1.962-.389a57.565 57.565 0 01-.927 3.938l1.93.526zm1.628-8.207c.175-1.394.3-2.784.376-4.168l-1.997-.11a56.97 56.97 0 01-.364 4.028l1.985.25zm.46-8.353a59.604 59.604 0 00-.209-4.18l-1.993.169c.114 1.336.182 2.684.202 4.04l2-.03zm-.708-8.335a59.49 59.49 0 00-.788-4.11l-1.95.444a58.05 58.05 0 01.762 3.973l1.976-.307zm-1.863-8.156a57.8 57.8 0 00-1.361-3.958l-1.867.718a55.575 55.575 0 011.314 3.822l1.914-.582zm-3.007-7.807a54.668 54.668 0 00-1.934-3.72l-1.738.991a52.64 52.64 0 011.864 3.583l1.808-.854zm-4.159-7.28a48.99 48.99 0 00-2.515-3.366l-1.549 1.265a46.837 46.837 0 012.412 3.229l1.652-1.128zm-5.321-6.498a42.127 42.127 0 00-3.097-2.851l-1.278 1.537c1.016.845 2 1.752 2.949 2.717L185.618 24zm-6.488-5.375a36.49 36.49 0 00-1.794-1.113l-1.004 1.729c.572.332 1.137.683 1.694 1.052l1.104-1.668zm-1.794-1.113a60.039 60.039 0 00-1.78-.995l-.946 1.762c.573.308 1.147.628 1.722.962l1.004-1.73zm-5.399-2.778a52.543 52.543 0 00-3.747-1.513l-.676 1.882c1.193.429 2.395.913 3.604 1.456l.819-1.825zm-7.607-2.723a45.097 45.097 0 00-3.955-.872l-.341 1.97c1.245.217 2.506.494 3.779.834l.517-1.932zm-7.977-1.374a39.785 39.785 0 00-4.073-.102l.053 2a37.843 37.843 0 013.869.096l.151-1.994zm-8.133.224c-1.362.184-2.696.44-3.999.767l.486 1.94a34.553 34.553 0 013.78-.725l-.267-1.982zm-7.892 1.984a34.934 34.934 0 00-3.729 1.66l.918 1.776a32.944 32.944 0 013.516-1.565l-.705-1.871zm-7.237 3.743a34.789 34.789 0 00-3.241 2.482l1.307 1.514a32.796 32.796 0 013.055-2.34l-1.121-1.656zm-6.168 5.325c-.917 1-1.778 2.055-2.579 3.16l1.619 1.174a33.535 33.535 0 012.434-2.983l-1.474-1.351zm-4.78 6.59a37.08 37.08 0 00-1.806 3.654l1.839.787a35.167 35.167 0 011.708-3.457l-1.741-.984zm-3.203 7.48a39.243 39.243 0 00-.985 3.943l1.963.384a37.2 37.2 0 01.934-3.742l-1.912-.585zm-1.564 7.966a42.133 42.133 0 00-.183 4.062l2-.005a40.402 40.402 0 01.174-3.87l-1.991-.187zm.013 8.112c.124 1.322.308 2.658.554 4.008l1.967-.358a45.138 45.138 0 01-.53-3.837l-1.991.187zm1.441 7.953a52.64 52.64 0 001.195 3.86l1.886-.664a50.962 50.962 0 01-1.149-3.713l-1.932.517zm2.67 7.616c.268.616.549 1.234.844 1.852l1.806-.86a57.009 57.009 0 01-.815-1.79l-1.835.797zm.844 1.852c.297.625.605 1.24.925 1.846l1.769-.932a48.93 48.93 0 01-.888-1.773l-1.806.86zm2.982 5.394a50.246 50.246 0 002.34 3.37l1.595-1.207a48.184 48.184 0 01-2.247-3.235l-1.688 1.072zm4.944 6.54a52.393 52.393 0 002.848 2.95l1.384-1.443a50.096 50.096 0 01-2.739-2.839l-1.493 1.331zm5.913 5.672a56.686 56.686 0 003.256 2.487l1.156-1.633a54.55 54.55 0 01-3.141-2.398l-1.271 1.544zm6.676 4.734a62.635 62.635 0 003.559 2.011l.927-1.772a60.772 60.772 0 01-3.445-1.947l-1.041 1.708zm7.234 3.792a70.266 70.266 0 003.773 1.556l.709-1.87a68.289 68.289 0 01-3.665-1.512l-.817 1.826zm7.626 2.896c1.29.41 2.596.786 3.916 1.13l.505-1.935a75.977 75.977 0 01-3.816-1.101l-.605 1.906zm7.884 2.06c1.325.276 2.661.52 4.007.734l.314-1.975a83.38 83.38 0 01-3.913-.717l-.408 1.958zm8.042 1.281c1.344.151 2.695.272 4.051.364l.135-1.995a90.327 90.327 0 01-3.963-.356l-.223 1.987zm8.113.551a96.67 96.67 0 004.066.014l-.035-2a94.373 94.373 0 01-3.982-.013l-.049 1.999zm8.13-.142c1.352-.08 2.704-.188 4.053-.323l-.2-1.99a98.943 98.943 0 01-3.971.317l.118 1.996zm8.089-.813c1.342-.191 2.68-.409 4.012-.654l-.363-1.967a96.51 96.51 0 01-3.93.641l.281 1.98zm7.995-1.475c1.324-.301 2.64-.63 3.946-.986l-.526-1.93a92.787 92.787 0 01-3.864.966l.444 1.95zm7.848-2.14a91.35 91.35 0 003.847-1.326l-.693-1.876c-1.241.459-2.496.89-3.764 1.296l.61 1.905zm7.632-2.824a84.825 84.825 0 003.71-1.675l-.867-1.803a82.445 82.445 0 01-3.623 1.636l.78 1.842zm7.335-3.531a76.568 76.568 0 003.528-2.043l-1.048-1.703a74.684 74.684 0 01-3.436 1.99l.956 1.756zm6.945-4.277a69.339 69.339 0 003.284-2.428L237.78 83.2a66.86 66.86 0 01-3.19 2.358l1.142 1.642zm6.417-5.053a61.852 61.852 0 002.959-2.823l-1.428-1.4a59.6 59.6 0 01-2.864 2.732l1.333 1.491zm5.721-5.844a57.31 57.31 0 001.297-1.582l-1.569-1.24a55.344 55.344 0 01-1.251 1.525l1.523 1.297zm1.297-1.582c.402-.51.795-1.024 1.178-1.543l-1.61-1.187c-.37.502-.749.998-1.137 1.49l1.569 1.24zm3.373-4.733c.7-1.091 1.362-2.2 1.988-3.323l-1.748-.973a59.805 59.805 0 01-1.924 3.216l1.684 1.08zm3.767-6.757a69.351 69.351 0 001.578-3.53l-1.848-.765a67.41 67.41 0 01-1.532 3.427l1.802.868zm2.96-7.136c.43-1.217.827-2.441 1.193-3.67l-1.916-.571a77.092 77.092 0 01-1.163 3.575l1.886.666zm2.209-7.39a87.07 87.07 0 00.845-3.758l-1.96-.396a87.193 87.193 0 01-.826 3.672l1.941.482zm1.531-7.55c.204-1.274.381-2.545.533-3.808l-1.985-.24a98.272 98.272 0 01-.523 3.733l1.975.316zm.924-7.638c.108-1.289.191-2.567.253-3.832l-1.997-.097a109.353 109.353 0 01-.249 3.763l1.993.166zm.377-7.677c.02-1.301.019-2.582-.002-3.84l-1.999.033c.02 1.237.021 2.497.001 3.775l2 .032zm-.124-7.679a125.31 125.31 0 00-.241-3.837l-1.994.156c.096 1.224.176 2.484.237 3.776l1.998-.095zm-.6-7.662c-.146-1.33-.308-2.604-.481-3.813l-1.98.282c.17 1.189.329 2.44.473 3.749l1.988-.218zm-1.092-7.609a89.438 89.438 0 00-.359-1.882l-1.96.396c.118.584.235 1.199.351 1.84l1.968-.354z" fill="#fff"/></svg>