<svg width="166" height="215" fill="none" xmlns="http://www.w3.org/2000/svg"><path d="M42.771 120.409l.294-.956-.294.956zM41.686 49.33l-.298-.954.298.955zm60.455 83.614l.949.317-.949-.317zM.458 208.586a1 1 0 00.353 1.37l7.75 4.575a1.001 1.001 0 001.017-1.723l-6.89-4.066 4.067-6.89a1 1 0 10-1.722-1.016l-4.575 7.75zM165.42.956a1 1 0 10-1.998.09l1.998-.09zM3.581 209.538a1 1 0 00-.513-1.933l.513 1.933zm3.446-3.014a1 1 0 10.541 1.925l-.541-1.925zm4.51.777a1 1 0 00-.571-1.917l.57 1.917zm3.36-3.122a1 1 0 00.602 1.908l-.602-1.908zm4.542.629a1 1 0 00-.633-1.897l.633 1.897zm3.25-3.232a1 1 0 10.667 1.885l-.667-1.885zm4.557.468a1 1 0 10-.702-1.872l.702 1.872zm3.124-3.349a1 1 0 00.738 1.859l-.738-1.859zm4.57.291a.999.999 0 10-.776-1.843l.776 1.843zm2.984-3.473a.999.999 0 10.815 1.826l-.815-1.826zm4.58.093a1 1 0 00-.857-1.807l.857 1.807zm2.827-3.608a1 1 0 00.9 1.786l-.9-1.786zm4.582-.126a1 1 0 00-.944-1.763l.944 1.763zm2.641-3.745a1 1 0 00.99 1.738l-.99-1.738zm4.568-.367a1 1 0 00-1.039-1.71l1.039 1.71zm2.428-3.885a1 1 0 101.088 1.678l-1.088-1.678zm4.538-.635a1 1 0 10-1.14-1.643l1.14 1.643zm2.184-4.026a1 1 0 101.191 1.606l-1.191-1.606zm4.486-.926a1 1 0 10-1.245-1.565l1.245 1.565zm1.906-4.165a1 1 0 001.3 1.52l-1.3-1.52zm4.41-1.242a1 1 0 10-1.356-1.47l1.356 1.47zm1.594-4.297A1 1 0 0080.079 170l-1.411-1.417zm4.302-1.58a1 1 0 10-1.468-1.359l1.468 1.359zm1.243-4.41a1 1 0 001.522 1.297l-1.522-1.297zm4.154-1.931a1 1 0 00-1.577-1.23l1.577 1.23zm.86-4.5a1 1 0 001.63 1.16l-1.63-1.16zm3.97-2.288a1 1 0 10-1.68-1.085l1.68 1.085zm.453-4.558a1 1 0 001.727 1.008l-1.727-1.008zm3.744-2.64a1 1 0 00-1.772-.927l1.772.927zm.033-4.581a1 1 0 001.813.844l-1.813-.844zm3.486-2.973a1 1 0 00-1.85-.76l1.85.76zm-.388-4.565a1 1 0 001.883.675l-1.883-.675zm3.189-3.232a.999.999 0 10-1.909-.596l1.909.596zm-.821-4.338a1 1 0 001.932.52l-1.932-.52zm2.898-3.396a1.001 1.001 0 00-1.952-.437l1.952.437zm-1.18-4.285a1 1 0 001.97.349l-1.97-.349zm2.575-3.608a1.001 1.001 0 00-1.984-.254l1.984.254zm-1.584-4.135a.999.999 0 101.994.154l-1.994-.154zm2.197-3.875a1 1 0 10-1.999-.046l1.999.046zm-2.018-3.96a1 1 0 001.999-.067l-1.999.067zm1.747-4.083a1 1 0 10-1.991.185l1.991-.185zm-2.47-3.686a1 1 0 101.976-.308l-1.976.308zm1.231-4.264a1 1 0 00-1.953.433l1.953-.433zm-2.922-3.34a1 1 0 101.919-.562l-1.919.561zm.657-4.39a1 1 0 10-1.877.69l1.877-.69zm-3.347-2.918a1 1 0 001.825-.818l-1.825.818zm.045-4.44a1 1 0 10-1.763.944l1.763-.944zm-3.721-2.423a1 1 0 101.692-1.066L97 74.184zm-.58-4.404a1 1 0 10-1.612 1.183l1.613-1.183zm-4.026-1.876a1 1 0 101.526-1.293l-1.526 1.293zm-1.192-4.279a1 1 0 10-1.43 1.398l1.43-1.398zm-4.25-1.293a1 1 0 101.33-1.494l-1.33 1.494zm-1.776-4.07a1 1 0 00-1.223 1.582l1.223-1.583zm-4.388-.69a1 1 0 101.109-1.665l-1.11 1.665zm-2.326-3.784a1 1 0 10-.99 1.738l.99-1.738zm-4.44-.07a1 1 0 00.864-1.803l-.865 1.804zm-2.837-3.416a1 1 0 00-.732 1.861l.732-1.861zm-4.402.57a1 1 0 00.593-1.91l-.593 1.91zm-3.312-2.96a1 1 0 10-.444 1.95l.444-1.95zm-4.267 1.24a1 1 0 10.285-1.98l-.285 1.98zm-3.747-2.386a1 1 0 00-.114 1.997l.114-1.997zm-3.985 1.952a1 1 0 10-.07-2l.07 2zm-4.117-1.657a1 1 0 00.269 1.982l-.27-1.982zm-3.523 2.706a1 1 0 10-.483-1.94l.483 1.94zm-4.465-.72a1 1 0 00.665 1.886l-.665-1.887zm-3.11 3.38a1 1 0 00-.809-1.83l.809 1.83zm-4.594.034a1 1 0 00.96 1.755l-.96-1.755zm-2.49 3.85a1 1 0 10-1.117-1.659l1.116 1.66zm-4.522.885a1 1 0 101.277 1.54l-1.277-1.54zm-1.688 4.275a1 1 0 00-1.434-1.394l1.434 1.394zm-4.218 1.81a1 1 0 101.583 1.223l-1.583-1.223zm-.686 4.548a1 1 0 00-1.717-1.027l1.717 1.026zm-3.674 2.757a1 1 0 101.83.808l-1.83-.808zm.444 4.573a1 1 0 10-1.917-.57l1.917.57zm-2.872 3.587a1 1 0 101.974.323l-1.974-.323zm1.58 4.314a1 1 0 00-1.999-.07l1.999.07zm-1.878 4.194a1 1 0 101.992-.183l-1.992.183zm2.607 3.784a1 1 0 00-1.954.428l1.954-.428zm-.79 4.526a1 1 0 001.887-.662l-1.887.662zm3.442 3.046a1 1 0 00-1.795.881l1.795-.88zm.295 4.584a1 1 0 101.682-1.081l-1.682 1.081zm4.049 2.187a1 1 0 00-1.553 1.261l1.553-1.261zm1.289 4.404a1 1 0 001.411-1.417l-1.411 1.417zm4.414 1.283a1 1 0 10-1.26 1.552l1.26-1.552zm2.157 4.065a1 1 0 101.107-1.665l-1.107 1.665zm4.575.421a.999.999 0 10-.954 1.757l.954-1.757zm2.835 3.61a1 1 0 10.804-1.831l-.804 1.831zm4.583-.349a1 1 0 10-.658 1.889l.658-1.889zm3.292 3.117a1 1 0 10.54-1.925l-.54 1.925zm4.29-.975a1 1 0 00-.442 1.951l.442-1.951zm3.477 2.735a1 1 0 00.341-1.971l-.341 1.971zm4.17-1.411a1 1 0 00-.237 1.986l.237-1.986zm3.732 2.353a1 1 0 10.13-1.995l-.13 1.995zm4.009-1.846a1 1 0 00-.023 2l.023-2zm3.956 1.938a1 1 0 00-.085-1.998l.085 1.998zm3.785-2.268a1 1 0 00.193 1.991l-.193-1.991zm4.148 1.501a1 1 0 10-.298-1.977l.298 1.977zm3.518-2.657a1 1 0 00.402 1.959l-.402-1.959zm4.283 1.057a1 1 0 10-.502-1.935l.502 1.935zm3.228-3.005a1 1 0 10.6 1.908l-.6-1.908zm4.367.622a1 1 0 10-.692-1.877l.692 1.877zm2.92-3.307a1 1 0 10.78 1.841l-.78-1.841zm4.404.206a1 1 0 10-.864-1.804l.864 1.804zm2.606-3.562a1.001 1.001 0 00.943 1.764l-.943-1.764zm4.407-.184a1 1 0 00-1.018-1.722l1.018 1.722zm2.289-3.77a1 1 0 001.087 1.679l-1.087-1.679zm4.38-.549a1 1 0 10-1.153-1.634l1.153 1.634zm1.983-3.939a1 1 0 001.215 1.589l-1.215-1.589zm4.321-.88a1 1 0 00-1.272-1.543l1.272 1.543zm1.692-4.08a1 1 0 001.327 1.497l-1.327-1.496zm4.246-1.184a1 1 0 00-1.378-1.45l1.378 1.45zm1.402-4.183a1 1 0 001.426 1.402l-1.426-1.402zm4.162-1.472a1 1 0 10-1.471-1.356l1.471 1.356zm1.124-4.263a1 1 0 001.513 1.308l-1.513-1.308zm4.059-1.732a1 1 0 10-1.552-1.26l1.552 1.26zm.861-4.328a1 1 0 101.59 1.213l-1.59-1.213zm3.945-1.972a1 1 0 00-1.626-1.165l1.626 1.165zm.602-4.373a1 1 0 001.659 1.117l-1.659-1.117zm3.823-2.2a1 1 0 00-1.69-1.068l1.69 1.069zm.349-4.398a1 1 0 101.72 1.02l-1.72-1.02zm3.692-2.416a1 1 0 10-1.749-.97l1.749.97zm.098-4.41a1 1 0 001.775.92l-1.775-.92zm3.55-2.62a1 1 0 00-1.8-.872l1.8.871zm-.15-4.41a1 1 0 001.824.82l-1.824-.82zm3.397-2.817a1 1 0 10-1.847-.767l1.847.767zm-.4-4.392a1 1 0 001.868.716l-1.868-.715zm3.232-3.006a1 1 0 10-1.887-.661l1.887.661zm-.651-4.364a1 1 0 001.906.606l-1.906-.606zm3.05-3.185a1 1 0 10-1.923-.55l1.923.55zm-.907-4.32a1 1 0 101.939.49l-1.939-.49zm2.852-3.364a1 1 0 00-1.953-.431l1.953.43zm-1.172-4.254a1 1 0 101.966.37l-1.966-.37zm2.635-3.541a1 1 0 00-1.977-.306l1.977.306zm-1.446-4.164a1 1 0 001.986.24l-1.986-.24zm2.393-3.71a1 1 0 00-1.993-.17l1.993.17zm-1.729-4.06a1 1 0 001.998.1l-1.998-.1zm2.123-3.861a1 1 0 00-2-.026l2 .026zm-2.024-3.926a1 1 0 002-.051l-2 .05zM1.569 210.063a345.95 345.95 0 002.012-.526l-.513-1.933c-.663.176-1.33.35-1.998.522l.499 1.937zm5.999-1.615c1.335-.375 2.658-.758 3.968-1.148l-.57-1.917c-1.3.387-2.614.767-3.94 1.14l.542 1.925zm7.93-2.362a253.81 253.81 0 003.941-1.279l-.633-1.897c-1.29.43-2.592.853-3.909 1.268l.602 1.908zm7.858-2.626c1.31-.464 2.608-.936 3.89-1.417l-.702-1.872c-1.27.476-2.556.944-3.855 1.404l.667 1.885zm7.752-2.907c1.293-.514 2.57-1.036 3.832-1.568l-.776-1.843a197.243 197.243 0 01-3.794 1.552l.738 1.859zm7.631-3.215a183.834 183.834 0 003.765-1.733l-.857-1.807a185.72 185.72 0 01-3.723 1.714l.815 1.826zm7.492-3.555a163.502 163.502 0 003.682-1.912l-.944-1.763c-1.195.64-2.407 1.269-3.638 1.889l.9 1.786zm7.314-3.919a152.814 152.814 0 003.577-2.105l-1.039-1.71a144.844 144.844 0 01-3.529 2.077l.99 1.738zm7.093-4.312c1.17-.759 2.32-1.53 3.45-2.313l-1.14-1.643c-1.112.77-2.245 1.53-3.398 2.278l1.088 1.678zm6.825-4.733a120.75 120.75 0 003.295-2.532l-1.245-1.565a120.708 120.708 0 01-3.241 2.491l1.191 1.606zm6.501-5.177a112.21 112.21 0 003.11-2.762l-1.356-1.47c-.994.917-2.012 1.821-3.054 2.712l1.3 1.52zM80.08 170c.99-.985 1.953-1.984 2.89-2.997l-1.467-1.359c-.92.993-1.864 1.973-2.834 2.939l1.41 1.417zm5.656-6.11a98.275 98.275 0 002.632-3.228l-1.577-1.23a96.042 96.042 0 01-2.577 3.161l1.522 1.297zm5.122-6.568a92.69 92.69 0 002.34-3.448l-1.68-1.085a90.61 90.61 0 01-2.29 3.373l1.63 1.16zm4.52-6.998a90.685 90.685 0 002.017-3.648l-1.772-.927a89.408 89.408 0 01-1.972 3.567l1.727 1.008zm3.864-7.385a90.501 90.501 0 001.672-3.817l-1.85-.76a88.894 88.894 0 01-1.636 3.733l1.813.844zm3.167-7.707c.234-.653.462-1.31.682-1.971l-1.898-.633c-.215.647-.437 1.29-.667 1.929l1.883.675zm.682-1.971c.216-.649.424-1.294.624-1.936l-1.909-.596c-.196.63-.4 1.263-.613 1.899l1.898.633zm1.735-5.754c.355-1.319.676-2.624.966-3.916l-1.952-.437a92.522 92.522 0 01-.946 3.833l1.932.52zm1.756-7.852c.236-1.335.438-2.654.605-3.957l-1.984-.254a81.775 81.775 0 01-.591 3.862l1.97.349zm1.015-7.938c.105-1.362.172-2.705.203-4.029l-1.999-.046a73.467 73.467 0 01-.198 3.921l1.994.154zm.184-8.056a67.857 67.857 0 00-.252-4.016l-1.991.185c.118 1.277.2 2.576.244 3.898l1.999-.067zm-.746-8.01a62.878 62.878 0 00-.745-3.956l-1.953.433a61.18 61.18 0 01.722 3.83l1.976-.307zm-1.748-7.858a58.887 58.887 0 00-1.262-3.829l-1.877.69a56.968 56.968 0 011.22 3.7l1.919-.561zm-2.784-7.564a57.302 57.302 0 00-1.78-3.622l-1.763.944a55.81 55.81 0 011.718 3.496l1.825-.818zm-3.81-7.111a57.133 57.133 0 00-2.27-3.338l-1.613 1.183a55.156 55.156 0 012.19 3.22l1.692-1.065zm-4.771-6.507a57.496 57.496 0 00-2.718-2.986l-1.43 1.398a55.495 55.495 0 012.622 2.881l1.526-1.293zm-5.638-5.773a57.905 57.905 0 00-3.106-2.577l-1.223 1.583a55.961 55.961 0 013 2.488l1.33-1.494zm-6.385-4.93a57.635 57.635 0 00-3.435-2.12l-.99 1.738a55.649 55.649 0 013.316 2.046l1.109-1.665zm-7.011-3.993a56.07 56.07 0 00-3.701-1.613l-.732 1.861c1.198.472 2.389.99 3.568 1.556l.865-1.804zm-7.51-2.952a52.533 52.533 0 00-3.905-1.05l-.444 1.95a50.32 50.32 0 013.756 1.01l.593-1.91zm-7.887-1.79a47.19 47.19 0 00-4.032-.407l-.114 1.997c1.277.073 2.566.203 3.861.39l.285-1.98zm-8.087-.454a40.662 40.662 0 00-4.047.342l.269 1.982a38.696 38.696 0 013.848-.325l-.07-2zm-8.053 1.108c-.662.164-1.316.347-1.962.549l.596 1.91a33.03 33.03 0 011.85-.519l-.484-1.94zm-1.962.549c-.685.214-1.358.437-2.02.67l.665 1.886c.638-.224 1.288-.44 1.95-.647l-.595-1.91zm-5.939 2.221a49.953 49.953 0 00-3.784 1.864l.96 1.755a47.954 47.954 0 013.633-1.79l-.809-1.829zm-7.392 4.055a42.556 42.556 0 00-3.405 2.544l1.277 1.54a40.522 40.522 0 013.244-2.424l-1.116-1.66zm-6.527 5.425a37.439 37.439 0 00-2.784 3.204l1.583 1.223a35.451 35.451 0 012.635-3.033l-1.434-1.394zm-5.187 6.725a34.56 34.56 0 00-1.957 3.784l1.83.808a32.558 32.558 0 011.844-3.566l-1.717-1.026zm-3.43 7.786a33.519 33.519 0 00-.955 4.158l1.974.323c.215-1.315.514-2.62.898-3.91l-1.917-.57zm-1.374 8.403c-.05 1.42-.009 2.844.121 4.263l1.992-.183a31.798 31.798 0 01-.114-4.01l-1.999-.07zm.774 8.475c.302 1.38.69 2.749 1.164 4.099l1.887-.663a33.005 33.005 0 01-1.097-3.864l-1.954.428zm2.81 8.025a37 37 0 002.09 3.703l1.683-1.081a34.99 34.99 0 01-1.977-3.503l-1.795.881zm4.587 7.151a40.07 40.07 0 002.842 3.143l1.411-1.417a38.136 38.136 0 01-2.7-2.987l-1.553 1.261zm5.995 5.978a44.359 44.359 0 003.418 2.513l1.107-1.665a42.416 42.416 0 01-3.264-2.4l-1.26 1.552zm7.04 4.691a50.01 50.01 0 003.788 1.853l.804-1.831a48.42 48.42 0 01-3.639-1.779l-.954 1.757zm7.713 3.393c.662.231 1.335.451 2.02.661l.587-1.912a52.976 52.976 0 01-1.95-.638l-.657 1.889zm2.02.661c.644.198 1.288.387 1.93.567l.54-1.925a76.518 76.518 0 01-1.883-.554l-.587 1.912zm5.778 1.543a78.26 78.26 0 003.919.784l.341-1.971a75.463 75.463 0 01-3.818-.764l-.442 1.951zm7.852 1.359c1.328.159 2.651.281 3.969.367l.13-1.995a72.973 72.973 0 01-3.862-.358l-.237 1.986zm7.955.521a74.15 74.15 0 003.979-.062l-.085-1.998a72.216 72.216 0 01-3.871.06l-.023 2zm7.957-.339a74.248 74.248 0 003.955-.49l-.298-1.977c-1.276.192-2.56.351-3.85.476l.193 1.991zm7.875-1.188a76.479 76.479 0 003.881-.902l-.502-1.935a74.968 74.968 0 01-3.78.878l.401 1.959zm7.708-1.999a82.531 82.531 0 003.768-1.286l-.692-1.877a79.132 79.132 0 01-3.675 1.255l.6 1.908zm7.468-2.752a85.571 85.571 0 003.624-1.635l-.864-1.804a83.761 83.761 0 01-3.54 1.598l.78 1.841zm7.173-3.433a93.028 93.028 0 003.464-1.948l-1.018-1.722a89.826 89.826 0 01-3.389 1.906l.943 1.764zm6.84-4.039a99.55 99.55 0 003.293-2.228l-1.153-1.634a97.656 97.656 0 01-3.227 2.183l1.087 1.679zm6.491-4.578a108.356 108.356 0 003.106-2.469l-1.272-1.543a105.394 105.394 0 01-3.049 2.423l1.215 1.589zm6.125-5.052c.986-.875 1.959-1.768 2.919-2.68l-1.378-1.45c-.944.896-1.899 1.775-2.868 2.634l1.327 1.496zm5.747-5.462c.926-.94 1.838-1.9 2.736-2.874l-1.471-1.356c-.883.96-1.781 1.902-2.691 2.828l1.426 1.402zm5.373-5.83c.863-.997 1.712-2.01 2.546-3.04l-1.552-1.26a127.322 127.322 0 01-2.507 2.993l1.513 1.308zm4.997-6.154c.8-1.048 1.585-2.11 2.355-3.185l-1.626-1.165a132.996 132.996 0 01-2.319 3.137l1.59 1.213zm4.616-6.44c.737-1.095 1.458-2.2 2.164-3.317l-1.69-1.069c-.696 1.1-1.407 2.19-2.133 3.268l1.659 1.117zm4.233-6.696a139.48 139.48 0 001.972-3.436l-1.749-.97a139.268 139.268 0 01-1.943 3.386l1.72 1.02zm3.845-6.925c.608-1.173 1.2-2.353 1.775-3.542l-1.8-.87a138.117 138.117 0 01-1.75 3.49l1.775.922zm3.449-7.131a139.902 139.902 0 001.573-3.637l-1.847-.767a136.204 136.204 0 01-1.55 3.584l1.824.82zm3.041-7.313a136.92 136.92 0 001.364-3.722l-1.887-.661c-.43 1.227-.878 2.45-1.345 3.668l1.868.715zm2.619-7.48c.401-1.26.782-2.524 1.144-3.791l-1.923-.55a132.394 132.394 0 01-1.127 3.735l1.906.606zm2.176-7.62c.324-1.283.629-2.569.913-3.855l-1.953-.431a127.93 127.93 0 01-.899 3.794l1.939.491zm1.707-7.74c.244-1.303.468-2.607.669-3.91l-1.977-.306a119.827 119.827 0 01-.658 3.847l1.966.37zm1.209-7.834a118.2 118.2 0 00.407-3.95l-1.993-.17c-.11 1.29-.244 2.585-.4 3.88l1.986.24zm.676-7.91c.066-1.324.108-2.644.125-3.961l-2-.026a105.615 105.615 0 01-.123 3.887l1.998.1zm.101-7.938a99.84 99.84 0 00-.07-1.978l-1.998.09c.029.645.052 1.291.068 1.939l2-.051z" fill="#fff"/></svg>