<svg width="1114" height="875" fill="none" xmlns="http://www.w3.org/2000/svg"><path d="M447.312 821.097c45.3-64.691 126.211-174.663 174.747-174.663 19.414 0 64.769 195.639-29.139 242.591-58.226 29.112-258.12-178.894-194.144-349.333 29.14-77.628 135.918-261.998 388.27-281.407 183.893-14.143 291.214 174.667 300.924 232.889 12.03 72.134-9.67 213.482-165.023 320.222C767.62 918.119 519.139 1112.21 272.566 1024.88-2.69 927.384-39.889 816.675 97.836 724.062c121.788-81.895 399.257-194.073 698.952-87.335 253.612 90.326 340.982 407.553 321.562 465.783-24.47 73.37-302.147-38.82-438.048-194.078-127.406-145.554-251.16-339.628-242.679-562.813 8.85-232.922 49.762-349.333 78.884-320.222 29.121 29.111 146.834 262 194.144 523.999 47.692 264.123 94.774 512.504 86.137 611.334-8.48 97.04-27.298 151.88-97.072 116.44-76.43-38.81-223.247-203.77-262.093-262-38.847-58.218-194.144-291.107-223.265-388.144-29.122-97.037-70.273-238.186 0-281.407 78.884-48.519 262.058-29.111 378.562 9.704 116.504 38.815 273.045 77.629 446.55 213.481 119.37 93.468 135.9 164.963 126.19 223.185-14.56 87.333-134.67 174.666-242.713 237.261-111.013 64.31-309.368 131.48-456.203 141.18-163.438 10.8-162.56-84.82-116.486-174.664 30.169-58.828 49.763-97.037 97.054-174.669z" stroke="#000" stroke-opacity=".3" stroke-width="40"/></svg>