<svg width="1188" height="1308" fill="none" xmlns="http://www.w3.org/2000/svg"><path d="M447.312 821.098c45.3-64.692 126.211-174.664 174.747-174.664 19.414 0 64.769 195.639-29.139 242.592-58.226 29.111-258.12-178.895-194.144-349.333 29.14-77.629 135.918-261.999 388.27-281.407 183.893-14.143 291.214 174.666 300.924 232.888 12.03 72.135-9.67 213.482-165.023 320.222C767.62 918.12 519.139 1112.21 272.566 1024.88-2.69 927.385-39.889 816.676 97.836 724.063c121.788-81.896 399.257-194.073 698.952-87.335 253.612 90.325 340.982 407.562 321.562 465.782-24.47 73.37-302.147-38.82-438.048-194.077-127.406-145.555-251.16-339.629-242.679-562.814 8.85-232.922 49.762-349.332 78.884-320.221 29.121 29.11 146.834 261.999 194.144 523.999 47.692 264.123 94.774 512.503 86.137 611.333-8.48 97.04-27.298 151.88-97.072 116.44-76.43-38.81-223.247-203.77-262.093-262-38.847-58.218-194.144-291.106-223.265-388.143-29.122-97.037-70.273-238.186 0-281.408 78.884-48.518 262.058-29.11 378.562 9.704 116.504 38.815 273.045 77.629 446.55 213.482 119.37 93.467 135.9 164.962 126.19 223.184-14.56 87.333-134.67 174.666-242.713 237.261-111.013 64.31-309.368 131.48-456.203 141.18-163.438 10.8-162.56-84.82-116.486-174.663 30.169-58.829 49.763-97.038 97.054-174.669z" stroke="#000" stroke-opacity=".3" stroke-width="40"/></svg>